<svg width="379" height="258" viewBox="0 0 379 258" fill="none" xmlns="http://www.w3.org/2000/svg">
<path d="M193.66 46.0627C193.451 45.9534 193.219 45.8943 192.984 45.89C192.748 45.8857 192.514 45.9364 192.301 46.038C185.864 49.099 136.077 72.9384 125.711 82.9179C114.623 93.5923 115.193 111.348 115.193 125.745V150.117C115.193 153.347 116.096 161.256 123.225 165.887C130.353 170.518 141.881 178.576 141.881 178.576L146.748 182.61L188.991 186.549L273.62 167.774C273.62 167.774 284.848 161.517 284.848 146.792C284.848 134.544 276.96 126.035 276.96 114.373C276.96 105.657 264.984 91.5973 254.434 93.2123L252.605 86.2258C252.605 86.2258 256.145 83.1265 256.145 80.9969C256.145 78.8673 246.64 74.0224 232.764 66.6124C220.209 59.9082 197.812 48.2272 193.66 46.0627Z" fill="#5DD62C"/>
<path d="M190.184 54.3575C196.932 54.3575 203.205 58.4424 214.42 64.1424C225.636 69.8424 246.356 80.2923 250.252 82.3823C254.149 84.4723 256.763 89.0323 255.741 94.5423C259.947 94.9223 266.077 97.2498 271.352 104.85C276.627 112.45 272.873 113.162 277.34 126.367C281.807 139.572 283.138 140.522 283.138 146.887C283.138 153.252 280.287 162.372 272.873 167.027C265.46 171.682 244.676 181.277 207.545 182.417C170.415 183.557 153.877 179.472 145.133 175.007C136.389 170.542 125.554 166.596 121.467 162.109C117.38 157.622 116.905 151.827 116.905 144.892V112.877C116.905 107.177 115.669 90.6473 122.892 85.0423C130.116 79.4374 133.442 78.0123 133.442 78.0123C133.442 78.0123 135.248 78.1074 142.662 74.4974C150.075 70.8874 175.927 59.0124 180.965 56.6374C186.002 54.2625 189.09 54.3575 190.184 54.3575Z" fill="#0F0F0F"/>
<path d="M232.647 142.875C227.583 144.51 219.957 144.014 219.957 144.014C220.155 142.613 220.207 141.195 220.111 139.784C220.111 139.784 227.681 142.517 231.161 137.531C231.112 139.723 231.774 141.916 232.647 142.875Z" fill="#C7CBCE"/>
<path d="M201.778 150.211C201.049 154.037 199.883 157.767 198.302 161.327V161.331C194.355 162.693 190.202 163.367 186.026 163.324C185.853 163.324 185.68 163.32 185.507 163.316C185.387 163.312 185.266 163.309 185.146 163.305C185.014 163.301 184.882 163.294 184.751 163.282C184.476 163.267 184.209 163.245 183.946 163.215C183.727 163.196 183.513 163.17 183.302 163.139C183.129 163.117 182.96 163.094 182.794 163.064C182.786 163.065 182.777 163.064 182.768 163.06C182.215 162.407 181.498 161.911 180.691 161.624C181.751 161.943 182.851 162.107 183.957 162.109C190.379 162.109 195.236 152.727 196.553 142.766C197.023 145.142 198.306 148.433 201.778 150.211Z" fill="#C7CBCE"/>
<path d="M197.211 163.5C194.871 167.75 191.5 171.375 186.808 171.375C185.315 171.39 183.832 171.135 182.429 170.623C184.657 168.974 186.454 166.812 187.666 164.32C191.263 164.538 195.443 163.843 197.211 163.5Z" fill="#C7CBCE"/>
<path d="M275.912 147.778C266.774 156.333 258.166 153.705 258.166 153.705L253.96 148.075C264.716 142.642 263.396 133.869 262.632 131.029C266.46 129.612 269.7 126.947 271.827 123.464C272.233 125.994 275.487 139.095 275.845 142.303C276.022 144.123 276.044 145.955 275.912 147.778Z" fill="#C7CBCE"/>
<path d="M275.724 149.673C275.021 154.968 272.688 161.015 265.864 161.327C264.595 161.385 263.326 161.223 262.113 160.849C261.394 158.798 260.323 156.886 258.949 155.201C261.977 155.526 265.041 155.202 267.934 154.248C270.827 153.295 273.483 151.735 275.724 149.673Z" fill="#C7CBCE"/>
<path d="M239.322 82.9523C235.045 80.4823 216.701 71.3624 209.098 67.5624C201.494 63.7624 195.72 59.6537 190.089 59.6537C184.457 59.6537 179.444 63.3824 167.943 68.7024C156.443 74.0224 131.543 84.7586 130.355 86.3617C129.28 87.8122 133.822 90.0773 150.17 97.7723C162.922 103.775 173.476 109.69 177.502 112.002C177.707 112.12 177.934 112.192 178.169 112.213C178.405 112.235 178.641 112.204 178.864 112.125C179.086 112.046 179.289 111.919 179.457 111.754C179.626 111.589 179.757 111.389 179.841 111.169C181.267 107.411 184.259 103.819 191.301 103.33C196.84 102.945 199.157 104.251 200.078 105.139C200.318 105.371 200.609 105.543 200.928 105.643C201.246 105.743 201.584 105.768 201.913 105.715C204.469 105.318 210.274 104.222 213.755 102.047C218.317 99.1972 230.768 93.5923 237.421 89.9823C244.074 86.3723 243.599 85.4223 239.322 82.9523ZM159.722 90.8769C153.724 90.8769 148.861 88.6652 148.861 85.9369C148.861 83.2086 153.724 80.9969 159.722 80.9969C165.72 80.9969 170.583 83.2087 170.583 85.9369C170.583 88.6652 165.72 90.8769 159.722 90.8769ZM186.77 103.103C180.809 103.103 175.976 100.969 175.976 98.3359C175.976 95.7029 180.809 93.5685 186.77 93.5685C192.732 93.5685 197.564 95.7029 197.564 98.3359C197.564 100.969 192.732 103.103 186.77 103.103ZM189.212 78.0123C183.213 78.0123 178.351 75.8006 178.351 73.0724C178.351 70.3441 183.213 68.1324 189.212 68.1324C195.21 68.1324 200.073 70.3441 200.073 73.0724C200.073 75.8006 195.21 78.0123 189.212 78.0123ZM215.187 91.4548C209.226 91.4548 204.393 89.1137 204.393 86.2259C204.393 83.338 209.226 80.9969 215.187 80.9969C221.149 80.9969 225.981 83.338 225.981 86.2259C225.981 89.1137 221.149 91.4548 215.187 91.4548Z" fill="#F8F8F8"/>
<path d="M208.006 133.745C206.794 133.745 205.62 134.171 204.691 134.949C203.761 135.726 203.135 136.806 202.922 137.999C202.708 139.192 202.921 140.421 203.523 141.473C204.125 142.525 205.078 143.331 206.216 143.751C205.387 142.89 204.896 141.76 204.833 140.567C204.769 139.374 205.137 138.199 205.869 137.254C206.601 136.31 207.649 135.661 208.821 135.426C209.992 135.19 211.209 135.383 212.25 135.971C211.777 135.283 211.143 134.721 210.403 134.334C209.664 133.946 208.841 133.744 208.006 133.745Z" fill="#F8F8F8"/>
<path d="M255.457 102.191C250.608 102.191 246.473 102.902 239.486 104.756C240.006 111.114 240.863 117.441 242.056 123.708L207.699 128.265C207.728 128.247 207.921 127.619 204.062 109.956C183.889 108.317 177.899 115.8 177.899 125.062C177.899 134.324 184.528 138.742 190.017 138.742C195.506 138.742 198.43 136.035 198.43 136.035C197.786 139.453 197.929 149.286 208.621 148.786C219.946 148.26 219.016 135.328 215.894 132.47C218.994 133.571 219.912 136.96 220.111 139.784C220.111 139.784 227.681 142.517 231.161 137.531C231.145 136.174 231.511 134.839 232.218 133.68C231.432 139.881 235.638 145.082 241.27 145.082C253.602 145.082 252.248 132.47 250.465 129.051C259.663 132.045 269.855 126.701 269.855 115.585C269.855 104.47 260.303 102.191 255.457 102.191ZM190.588 115.585C193.494 115.281 193.51 117.366 193.582 118.72C193.653 120.073 194.006 121.681 191.297 123.462C190.483 123.072 189.769 122.499 189.213 121.788C188.657 121.076 188.274 120.246 188.093 119.361C187.594 116.867 187.858 115.87 190.588 115.585ZM185.93 128.405C183.442 128.936 182.441 128.685 182.12 125.961C181.778 123.06 183.864 123.016 185.217 122.927C186.57 122.838 188.174 122.464 189.991 125.148C189.612 125.968 189.048 126.688 188.343 127.253C187.639 127.818 186.813 128.212 185.93 128.405ZM192.116 134.676C189.379 134.876 188.943 133.941 188.995 131.398C189.017 130.496 189.248 129.611 189.67 128.812C190.092 128.014 190.693 127.324 191.426 126.797C194.407 128.073 194.342 129.718 194.511 131.063C194.679 132.408 195.031 134.463 192.116 134.676ZM197.72 127.183C196.822 127.285 195.913 127.178 195.064 126.871C194.215 126.563 193.448 126.063 192.825 125.41C193.679 122.283 195.317 122.12 196.627 121.768C197.937 121.416 199.925 120.784 200.538 123.641C201.113 126.323 200.246 126.883 197.72 127.183ZM199.534 114.237C199.372 112.156 200.877 111.632 201.601 111.965C202.324 112.298 201.984 113.446 202.292 115.141C202.6 116.836 202.831 118.015 201.898 118.182C200.863 118.368 199.696 116.317 199.534 114.237ZM208.005 145.462C206.708 145.462 205.44 145.077 204.361 144.357C203.283 143.637 202.442 142.613 201.946 141.415C201.449 140.217 201.32 138.899 201.573 137.628C201.826 136.356 202.45 135.188 203.367 134.272C204.285 133.355 205.453 132.731 206.725 132.478C207.997 132.225 209.316 132.354 210.514 132.851C211.713 133.347 212.737 134.187 213.457 135.265C214.178 136.343 214.563 137.61 214.563 138.907C214.563 139.767 214.393 140.62 214.064 141.415C213.734 142.21 213.251 142.933 212.642 143.542C212.033 144.15 211.31 144.633 210.514 144.963C209.719 145.292 208.866 145.462 208.005 145.462ZM226.633 127.875C226.786 127.875 226.935 127.921 227.062 128.005C227.189 128.09 227.288 128.211 227.347 128.352C227.405 128.493 227.421 128.648 227.391 128.798C227.361 128.947 227.287 129.085 227.179 129.193C227.071 129.301 226.934 129.374 226.784 129.404C226.634 129.434 226.479 129.419 226.338 129.36C226.197 129.302 226.076 129.203 225.991 129.076C225.906 128.949 225.861 128.8 225.861 128.647C225.861 128.546 225.881 128.445 225.92 128.352C225.959 128.258 226.016 128.173 226.087 128.101C226.159 128.03 226.244 127.973 226.338 127.934C226.432 127.895 226.532 127.875 226.633 127.875ZM225.618 130.88C225.618 131.032 225.572 131.181 225.487 131.308C225.403 131.435 225.282 131.534 225.141 131.593C225 131.651 224.845 131.666 224.695 131.637C224.545 131.607 224.407 131.533 224.299 131.425C224.191 131.317 224.118 131.18 224.088 131.03C224.058 130.88 224.074 130.725 224.132 130.584C224.19 130.443 224.289 130.323 224.416 130.238C224.543 130.153 224.693 130.108 224.845 130.108C225.05 130.108 225.247 130.189 225.391 130.334C225.536 130.479 225.618 130.675 225.618 130.88ZM224.394 128.119C224.547 128.119 224.696 128.164 224.823 128.249C224.95 128.334 225.049 128.454 225.107 128.595C225.166 128.736 225.181 128.891 225.151 129.041C225.122 129.191 225.048 129.328 224.94 129.436C224.832 129.544 224.694 129.618 224.545 129.648C224.395 129.677 224.24 129.662 224.098 129.604C223.957 129.545 223.837 129.446 223.752 129.319C223.667 129.192 223.622 129.043 223.622 128.891C223.622 128.789 223.642 128.689 223.68 128.595C223.719 128.502 223.776 128.416 223.848 128.345C223.92 128.273 224.005 128.216 224.098 128.177C224.192 128.139 224.293 128.119 224.394 128.119ZM219.957 130.927C219.778 130.927 219.604 130.874 219.455 130.775C219.307 130.676 219.191 130.535 219.123 130.37C219.054 130.205 219.037 130.024 219.071 129.849C219.106 129.673 219.192 129.513 219.319 129.386C219.445 129.26 219.606 129.174 219.781 129.139C219.956 129.105 220.137 129.123 220.302 129.191C220.467 129.259 220.608 129.375 220.708 129.523C220.807 129.672 220.86 129.846 220.86 130.025C220.86 130.264 220.765 130.494 220.595 130.663C220.426 130.832 220.196 130.927 219.957 130.927ZM221.537 129.247C221.537 129.094 221.582 128.945 221.667 128.818C221.752 128.691 221.872 128.592 222.013 128.534C222.154 128.475 222.31 128.46 222.46 128.49C222.609 128.52 222.747 128.593 222.855 128.701C222.963 128.809 223.036 128.946 223.066 129.096C223.096 129.246 223.081 129.401 223.022 129.542C222.964 129.683 222.865 129.804 222.738 129.889C222.611 129.973 222.462 130.019 222.309 130.019C222.207 130.019 222.107 129.999 222.013 129.96C221.92 129.921 221.835 129.864 221.763 129.793C221.691 129.721 221.634 129.636 221.595 129.542C221.557 129.449 221.537 129.348 221.537 129.247ZM221.988 131.236C221.988 131.083 222.033 130.934 222.118 130.807C222.203 130.68 222.324 130.581 222.465 130.523C222.606 130.464 222.761 130.449 222.911 130.479C223.061 130.509 223.198 130.582 223.306 130.69C223.414 130.798 223.488 130.936 223.518 131.085C223.548 131.235 223.532 131.39 223.474 131.531C223.415 131.672 223.316 131.793 223.189 131.878C223.062 131.962 222.913 132.008 222.76 132.008C222.659 132.008 222.559 131.988 222.465 131.949C222.371 131.91 222.286 131.853 222.214 131.782C222.143 131.71 222.086 131.625 222.047 131.531C222.008 131.438 221.988 131.337 221.988 131.236ZM224.984 139.065C224.455 139.065 223.938 138.909 223.498 138.615C223.058 138.321 222.715 137.903 222.513 137.415C222.31 136.926 222.257 136.389 222.36 135.87C222.463 135.351 222.718 134.875 223.092 134.501C223.467 134.127 223.943 133.872 224.462 133.769C224.981 133.666 225.519 133.719 226.008 133.921C226.497 134.124 226.914 134.466 227.208 134.906C227.502 135.346 227.659 135.863 227.659 136.392C227.659 136.743 227.59 137.09 227.456 137.415C227.321 137.739 227.124 138.034 226.876 138.282C226.627 138.531 226.332 138.727 226.008 138.862C225.683 138.996 225.335 139.065 224.984 139.065ZM227.085 131.408C226.932 131.408 226.783 131.363 226.656 131.278C226.529 131.193 226.43 131.073 226.371 130.932C226.313 130.791 226.298 130.635 226.327 130.486C226.357 130.336 226.431 130.198 226.539 130.09C226.647 129.982 226.784 129.909 226.934 129.879C227.084 129.849 227.239 129.865 227.38 129.923C227.522 129.981 227.642 130.08 227.727 130.207C227.812 130.334 227.857 130.484 227.857 130.636C227.857 130.841 227.776 131.037 227.631 131.182C227.486 131.327 227.29 131.408 227.085 131.408ZM228.847 129.326C228.667 129.326 228.491 129.272 228.342 129.172C228.192 129.073 228.076 128.931 228.007 128.764C227.938 128.598 227.92 128.415 227.955 128.239C227.99 128.063 228.077 127.901 228.204 127.773C228.331 127.646 228.493 127.56 228.67 127.525C228.846 127.49 229.029 127.508 229.195 127.576C229.362 127.645 229.504 127.762 229.604 127.911C229.704 128.061 229.757 128.237 229.757 128.416C229.757 128.658 229.661 128.889 229.49 129.059C229.32 129.23 229.088 129.326 228.847 129.326ZM242.981 108.745C242.981 106.75 243.029 105.99 244.122 105.99C245.215 105.99 246.118 107.201 245.928 109.255C245.737 111.31 245.167 112.521 244.122 112.521C242.886 112.521 242.981 110.74 242.981 108.745ZM241.912 141.257C240.615 141.257 239.347 140.873 238.268 140.153C237.19 139.432 236.349 138.409 235.853 137.211C235.357 136.013 235.227 134.695 235.48 133.423C235.733 132.152 236.357 130.984 237.275 130.067C238.192 129.15 239.36 128.526 240.632 128.273C241.905 128.02 243.223 128.15 244.422 128.646C245.62 129.142 246.644 129.983 247.365 131.061C248.085 132.138 248.47 133.406 248.47 134.702C248.47 135.563 248.3 136.415 247.971 137.211C247.641 138.006 247.158 138.729 246.549 139.337C245.94 139.946 245.217 140.429 244.422 140.758C243.626 141.088 242.773 141.257 241.912 141.257ZM248.684 120.643C248.064 120.643 247.457 120.46 246.941 120.115C246.426 119.771 246.024 119.281 245.786 118.708C245.549 118.135 245.487 117.505 245.608 116.897C245.729 116.289 246.027 115.73 246.466 115.292C246.905 114.853 247.464 114.555 248.072 114.434C248.68 114.313 249.311 114.375 249.884 114.612C250.457 114.849 250.947 115.251 251.292 115.767C251.636 116.282 251.82 116.888 251.82 117.508C251.82 117.92 251.739 118.328 251.582 118.708C251.424 119.088 251.193 119.434 250.902 119.725C250.61 120.016 250.265 120.247 249.884 120.405C249.504 120.562 249.096 120.643 248.684 120.643ZM255.741 106.251C256.361 106.251 256.968 106.435 257.483 106.779C257.999 107.124 258.401 107.613 258.639 108.186C258.876 108.759 258.938 109.389 258.817 109.998C258.696 110.606 258.397 111.164 257.959 111.603C257.52 112.041 256.961 112.34 256.353 112.461C255.744 112.582 255.114 112.52 254.541 112.282C253.968 112.045 253.478 111.643 253.133 111.128C252.788 110.612 252.604 110.006 252.604 109.386C252.604 108.974 252.686 108.567 252.843 108.186C253.001 107.806 253.232 107.46 253.523 107.169C253.814 106.878 254.16 106.647 254.541 106.49C254.921 106.332 255.329 106.251 255.741 106.251ZM256.525 126.913C255.905 126.913 255.298 126.73 254.783 126.385C254.267 126.041 253.865 125.551 253.627 124.978C253.39 124.405 253.328 123.775 253.449 123.167C253.57 122.559 253.869 122 254.307 121.562C254.746 121.123 255.305 120.825 255.913 120.704C256.522 120.583 257.152 120.645 257.725 120.882C258.298 121.119 258.788 121.521 259.133 122.037C259.478 122.552 259.662 123.158 259.662 123.778C259.662 124.61 259.331 125.407 258.743 125.995C258.155 126.583 257.357 126.913 256.525 126.913ZM263.582 119.717C262.962 119.717 262.355 119.533 261.84 119.189C261.324 118.844 260.922 118.355 260.684 117.782C260.447 117.209 260.385 116.579 260.506 115.971C260.627 115.362 260.926 114.804 261.364 114.365C261.803 113.927 262.362 113.628 262.97 113.507C263.579 113.386 264.209 113.449 264.782 113.686C265.356 113.923 265.845 114.325 266.19 114.84C266.535 115.356 266.719 115.962 266.719 116.582C266.719 117.414 266.388 118.211 265.8 118.799C265.212 119.387 264.414 119.717 263.582 119.717Z" fill="#F8F8F8"/>
<path d="M241.914 129.54C240.701 129.54 239.528 129.967 238.598 130.744C237.669 131.522 237.042 132.602 236.829 133.794C236.615 134.987 236.828 136.217 237.431 137.269C238.033 138.32 238.986 139.127 240.123 139.547C239.294 138.686 238.803 137.556 238.74 136.363C238.676 135.17 239.044 133.994 239.776 133.05C240.509 132.106 241.556 131.457 242.728 131.221C243.899 130.986 245.117 131.179 246.157 131.766C245.684 131.079 245.05 130.517 244.311 130.129C243.571 129.741 242.749 129.539 241.914 129.54Z" fill="#F8F8F8"/>
<path d="M205.7 109.315L206.152 112.545L238.562 108.127L238.087 104.85L205.7 109.315Z" fill="#F8F8F8"/>
<path d="M185.082 109.665C186.704 108.285 189.551 106.977 194.35 107.591C194.495 107.61 194.629 107.682 194.724 107.794C194.819 107.905 194.87 108.048 194.865 108.195C194.861 108.342 194.802 108.481 194.7 108.587C194.598 108.692 194.46 108.756 194.314 108.766C191.288 108.972 188.198 109.52 185.705 110.654C185.576 110.712 185.429 110.721 185.293 110.68C185.157 110.639 185.04 110.55 184.964 110.43C184.888 110.31 184.858 110.166 184.88 110.026C184.902 109.885 184.973 109.757 185.082 109.665Z" fill="#F8F8F8"/>
<path d="M258.54 100.096C256.658 99.0993 253.595 98.4379 249.043 100.075C248.905 100.125 248.79 100.224 248.721 100.354C248.652 100.483 248.634 100.634 248.67 100.776C248.706 100.918 248.794 101.042 248.916 101.123C249.039 101.204 249.187 101.236 249.332 101.214C252.33 100.761 255.466 100.628 258.145 101.196C258.284 101.225 258.429 101.203 258.553 101.133C258.678 101.064 258.772 100.952 258.82 100.818C258.869 100.684 258.867 100.537 258.815 100.405C258.764 100.272 258.666 100.163 258.54 100.096Z" fill="#F8F8F8"/>
<path d="M196.553 142.766C195.236 152.727 190.379 162.109 183.957 162.109C182.851 162.107 181.751 161.943 180.691 161.624C180.533 161.564 180.371 161.512 180.206 161.47C177.369 160.507 175.123 158.65 173.773 157.3C173.634 156.344 173.56 155.381 173.551 154.415C173.551 142.803 176.903 132.684 176.903 132.684C176.903 132.684 179.773 141.592 189.992 141.592C194.367 141.592 196.289 139.953 196.289 139.953C196.274 140.897 196.362 141.84 196.553 142.766Z" fill="#F8F8F8"/>
<path d="M198.302 161.331C197.967 162.064 197.606 162.79 197.211 163.5C195.443 163.843 191.263 164.538 187.666 164.32C186.454 166.812 184.657 168.974 182.429 170.623C177.271 168.686 175.003 163.384 174.096 159.123C174.209 159.221 174.333 159.323 174.469 159.432C174.593 159.529 174.724 159.631 174.864 159.736L174.875 159.748C175.018 159.853 175.168 159.962 175.326 160.071C175.409 160.127 175.492 160.188 175.579 160.244C175.657 160.297 175.74 160.349 175.823 160.402C175.917 160.466 176.019 160.53 176.116 160.59C176.263 160.68 176.414 160.77 176.572 160.864C176.82 161.007 177.083 161.15 177.354 161.289C177.467 161.346 177.58 161.402 177.697 161.459C177.971 161.594 178.257 161.722 178.554 161.846C178.739 161.925 178.931 162.004 179.13 162.079C179.247 162.124 179.363 162.169 179.484 162.211C179.574 162.241 179.664 162.275 179.758 162.305C180.108 162.425 180.469 162.538 180.846 162.639C180.928 162.666 181.015 162.688 181.101 162.707C181.628 162.846 182.185 162.966 182.768 163.06C182.776 163.064 182.785 163.065 182.794 163.064C182.96 163.094 183.129 163.117 183.302 163.139C183.513 163.17 183.727 163.196 183.946 163.215C184.209 163.245 184.476 163.267 184.751 163.282C184.882 163.294 185.014 163.301 185.146 163.305C185.266 163.309 185.387 163.312 185.507 163.316C185.68 163.32 185.853 163.324 186.026 163.324C190.202 163.367 194.355 162.693 198.302 161.331Z" fill="#F8F8F8"/>
<path d="M258.948 155.201C260.323 156.886 261.393 158.798 262.112 160.849C258.651 159.8 255.796 157.194 253.621 154.457C254.801 154.263 256.009 154.322 257.165 154.63C255.908 153.374 253.873 153.287 252.782 153.347C251.152 151.083 249.778 148.645 248.685 146.079C248.685 146.079 253.388 144.653 254.103 139.065C254.765 133.876 252.534 130.879 252.534 130.879C252.534 130.879 256.24 132.613 260.446 131.65C261.187 131.491 261.917 131.283 262.631 131.029C263.395 133.869 264.716 142.642 253.96 148.075L258.166 153.705C258.166 153.705 266.774 156.333 275.912 147.778C275.871 148.391 275.81 149.027 275.724 149.673C273.483 151.735 270.826 153.295 267.933 154.248C265.04 155.202 261.977 155.526 258.948 155.201Z" fill="#F8F8F8"/>
<path d="M175.976 116.677C175.976 116.677 136.293 96.0623 132.682 94.4473C129.07 92.8322 122.037 91.6923 122.037 99.5772V149.927C122.037 153.917 125.743 159.047 129.355 161.042C132.967 163.037 164.617 177.952 164.617 177.952C164.617 177.952 171.27 133.777 173.646 130.262C172.886 121.047 175.976 116.677 175.976 116.677Z" fill="#F8F8F8"/>
<path d="M134.006 103.014C137.719 103.729 140.808 107.888 141.474 112.543C141.757 114.292 141.667 116.081 141.211 117.793L133.822 115.033V120.903C131.214 119.451 129.074 116.176 128.547 112.363C127.874 107.489 129.736 102.191 134.006 103.014Z" fill="#0F0F0F"/>
<path d="M138.324 154.239L131.386 150.103V156.89C128.636 155.638 126.337 152.505 125.792 148.828C125.118 144.319 126.981 139.415 131.251 140.175C134.96 140.837 138.053 144.688 138.719 148.997C139.035 150.749 138.899 152.554 138.324 154.239Z" fill="#0F0F0F"/>
<path d="M152.814 140.294L145.383 136.578L146.377 142.994C143.435 141.888 140.914 138.613 140.334 134.74C139.665 130.231 141.523 125.327 145.793 126.087C149.507 126.749 152.595 130.599 153.261 134.909C153.588 136.712 153.433 138.569 152.814 140.294Z" fill="#0F0F0F"/>
<path d="M170.379 132.067L163.573 128.217L164.149 134.903C161.139 133.771 158.54 130.187 157.953 125.934C157.283 121.061 159.142 115.762 163.412 116.586C167.125 117.3 170.214 121.459 170.88 126.115C171.196 128.337 171.022 130.439 170.379 132.067Z" fill="#0F0F0F"/>
<path d="M166.328 175.102L171.175 164.873C171.175 164.873 176.973 177.762 187.903 175.767V188.687L166.328 175.102Z" fill="white"/>
<path d="M242.489 172.014L251.323 158.334C251.323 158.334 246.259 153.133 245.405 149.358C244.368 149.526 243.317 149.595 242.267 149.564C243.091 151.189 243.369 153.814 241.15 157.273C237.256 163.354 229.08 163.734 229.08 158.225C229.08 153.998 232.895 150.057 236.816 148.451C235.229 147.849 233.761 146.973 232.478 145.864C229.344 148.026 223.166 149.072 219.126 148.805C213.802 154.141 209.051 153.915 204.773 153.043C203.776 166.851 192.824 174.579 192.824 174.579V189.684C192.824 189.684 199.498 180.565 205.913 180.565C209.764 180.588 213.452 182.124 216.18 184.841L235.356 176.778L256.526 172.868L257.666 164.873L242.489 172.014ZM215.657 168.833C211.759 174.913 203.584 175.293 203.584 169.78C203.584 164.271 207.956 158.571 212.711 158.571C216.511 158.571 219.555 162.752 215.657 168.833Z" fill="#5DD62C"/>
<path d="M227.085 101.222L242.488 100.693C242.488 100.693 244.336 95.5635 251.82 95.136C250.894 92.856 248.541 91.4548 247.044 91.4548C245.547 91.4548 233.999 98.0458 227.085 101.222Z" fill="#5DD62C"/>
<path d="M141.211 117.793C140.534 120.128 139.014 121.711 136.722 121.711C135.702 121.697 134.702 121.418 133.822 120.903V115.033L141.211 117.793Z" fill="#202020"/>
<path d="M170.379 132.067C169.612 134.011 168.182 135.282 166.128 135.282C165.45 135.279 164.779 135.15 164.149 134.903L163.573 128.217L170.379 132.067Z" fill="#202020"/>
<path d="M152.814 140.294C152.062 142.163 150.609 143.396 148.51 143.396C147.781 143.392 147.058 143.256 146.377 142.994L145.384 136.578L152.814 140.294Z" fill="#202020"/>
<path d="M163.077 164.162L155.647 160.447L156.64 166.862C153.698 165.756 151.178 162.481 150.598 158.608C149.928 154.099 151.787 149.196 156.057 149.955C159.77 150.617 162.859 154.468 163.525 158.777C163.851 160.58 163.697 162.437 163.077 164.162Z" fill="#0F0F0F"/>
<path d="M163.077 164.162C162.325 166.031 160.873 167.264 158.773 167.264C158.044 167.261 157.321 167.124 156.64 166.862L155.647 160.447L163.077 164.162Z" fill="#202020"/>
<path d="M138.324 154.239C137.59 156.187 136.119 157.48 133.963 157.48C133.072 157.473 132.192 157.272 131.386 156.89V150.103L138.324 154.239Z" fill="#202020"/>
<path d="M344.681 192.111C344.579 192.623 344.505 193.067 344.45 193.457L349.74 191.453V198.822C349.74 205.222 345.231 212.11 335.326 212.11C331.655 212.11 328.9 210.774 326.942 208.912C324.029 210.953 320.567 212.068 317.01 212.11C312.131 212.11 308.134 210.411 305.406 207.247C302.464 209.177 296.872 212.11 290.066 212.11C283.456 212.11 279.248 209.804 276.707 207.518C274.352 210.228 270.647 212.11 265.469 212.11C261.801 212.11 259.046 210.774 257.085 208.912C254.171 210.953 250.71 212.068 247.153 212.11C242.62 212.11 238.847 210.642 236.149 207.895C233.781 210.401 230.187 212.11 225.25 212.11C221.579 212.11 218.824 210.774 216.866 208.912C213.953 210.953 210.491 212.068 206.934 212.11C201.868 212.11 197.753 210.279 195.024 206.877C192.269 208.776 186.396 212.11 179.141 212.11C171.534 212.11 167.113 209.058 164.744 206.497C163.749 205.416 162.906 204.204 162.237 202.896C157.266 208.939 150.33 212.11 142.007 212.11C135.441 212.11 130.62 210.411 128.248 209.346C126.039 211.205 122.982 212.11 118.954 212.11C112.599 212.11 109.593 209.322 108.188 206.979C107.871 206.454 107.603 205.901 107.387 205.327C105.344 212.114 99.1317 212.11 96.3154 212.11C93.645 212.11 91.3784 211.713 89.5767 210.927C88.7286 210.55 87.9761 209.988 87.3746 209.282C86.7732 208.576 86.3383 207.744 86.1021 206.847C85.6299 207.811 84.9741 208.674 84.1715 209.387C81.7827 211.486 78.5966 211.771 75.7939 211.771C69.1128 211.771 66.3474 209.472 65.265 208.003C60.8913 210.696 55.1739 212.11 48.6659 212.11C39.8438 212.11 34.4386 208.536 31.4561 205.534C27.951 202.004 25.8574 197.276 25.8574 192.887C25.8574 186.972 28.8434 178.222 36.505 172.813C34.1366 170.005 32.569 166.308 33.1017 161.94L33.1153 161.838C34.2927 153.593 39.0125 147.173 46.7624 143.276C51.5023 140.941 56.6971 139.673 61.9805 139.563C63.4837 139.563 68.7939 139.77 73.8971 142.432C79.4449 145.328 82.5021 150.07 82.5021 155.788C82.5021 160.505 80.3915 163.327 78.6102 164.863C79.7181 164.621 80.8488 164.498 81.9829 164.497C85.5524 164.497 87.9005 165.555 89.3934 166.98C92.3013 165.355 95.3619 164.409 98.0595 164.409C101.583 164.441 104.956 165.843 107.462 168.319C110.818 165.664 115.191 163.683 119.928 163.683C123.182 163.683 125.995 164.857 128.058 167.081C128.922 168.014 129.626 169.083 130.141 170.246C130.542 168.116 130.956 165.847 131.356 163.639C132.438 157.68 133.073 154.238 133.501 152.786C134.773 148.486 139.235 145.817 145.146 145.817C148.895 145.817 151.04 147.414 152.183 148.754C153.347 150.12 154.599 152.566 153.971 156.442C153.754 157.779 152.967 161.255 152.102 164.928C153.041 164.728 153.998 164.626 154.959 164.623C159.108 164.623 163.055 166.813 165.783 170.636C166.602 171.788 167.289 173.029 167.829 174.336C173.858 167.112 181.449 164.497 186.352 164.497C189.531 164.514 192.637 165.453 195.293 167.2C197.359 168.579 199.009 170.497 200.063 172.745C205.18 167.593 211.444 164.904 215.668 164.904C216.98 164.907 218.284 165.101 219.54 165.481C221.28 157.361 222.97 149.639 222.99 149.541L223.513 147.153L225.705 146.068C226.404 145.722 230.079 143.995 233.876 143.995C237.903 143.995 240.116 145.786 241.266 147.289C243.943 150.789 243.115 155.54 242.094 159.288C241.435 161.713 240.024 167.621 238.548 174.071C238.487 174.332 238.429 174.594 238.368 174.858C243.75 168.333 251.119 164.904 255.887 164.904C257.198 164.907 258.503 165.101 259.758 165.481C261.502 157.361 263.189 149.639 263.209 149.541L263.732 147.153L265.924 146.068C266.623 145.722 270.301 143.995 274.098 143.995C278.122 143.995 280.337 145.786 281.484 147.289C284.162 150.789 283.334 155.54 282.316 159.288C281.644 161.757 280.195 167.824 278.692 174.404C284.735 167.125 292.353 164.497 297.273 164.497C300.453 164.514 303.56 165.453 306.217 167.2C308.106 168.463 309.65 170.176 310.709 172.186C315.714 167.4 321.679 164.904 325.744 164.904C327.056 164.907 328.36 165.101 329.616 165.481C331.356 157.361 333.043 149.639 333.066 149.541L333.589 147.153L335.781 146.068C336.477 145.722 340.155 143.995 343.952 143.995C347.979 143.995 350.192 145.786 351.342 147.289C354.019 150.789 353.191 155.54 352.17 159.288C351.508 161.713 350.1 167.621 348.624 174.071C347.145 180.522 345.604 187.515 344.681 192.111Z" fill="#202020"/>
<path d="M343.351 191.843C343.08 193.028 342.951 194.242 342.968 195.458C343.076 195.424 343.195 195.383 343.327 195.333L348.383 193.416V198.822C348.383 204.568 344.298 210.754 335.326 210.754C331.401 210.754 328.764 209.143 327.068 207.125C324.614 208.977 321.177 210.754 317.01 210.754C312.087 210.754 308.154 208.875 305.694 205.402C303.377 207.087 297.48 210.754 290.066 210.754C283.68 210.754 279.32 208.583 276.541 205.463C274.508 208.509 270.874 210.754 265.469 210.754C261.547 210.754 258.907 209.143 257.214 207.125C254.76 208.977 251.32 210.754 247.153 210.754C242.409 210.754 238.582 209.007 236.108 205.772C234.039 208.658 230.472 210.754 225.25 210.754C221.328 210.754 218.688 209.143 216.992 207.125C214.538 208.977 211.101 210.754 206.934 210.754C201.818 210.754 197.77 208.722 195.333 204.981C193.555 206.362 187.258 210.754 179.141 210.754C169.559 210.754 164.537 205.867 162.566 200.213C159.146 205.154 152.869 210.754 142.007 210.754C134.821 210.754 129.745 208.59 127.997 207.725C126.015 209.763 123.057 210.754 118.954 210.754C118.391 210.754 112.107 210.445 109.352 206.284C108.212 204.561 107.038 201.217 107.038 201.207C107.038 201.207 106.929 201.692 106.817 202.204C106.702 202.719 106.58 203.258 106.556 203.374C106.464 203.771 105.755 206.881 103.74 208.766C101.833 210.55 99.3965 210.754 96.3156 210.754C93.7063 210.754 90.5405 210.547 88.5793 208.58C86.8961 206.891 86.8047 204.085 86.7436 201.837L86.7281 201.836C86.1766 204.799 84.5509 208.034 81.715 209.377C79.8895 210.242 77.7858 210.415 75.794 210.415C69.286 210.415 66.9719 208.091 66.2797 207.091L65.6215 206.141C65.479 206.246 65.3331 206.345 65.1872 206.443C60.9593 209.265 55.2453 210.754 48.6661 210.754C40.3122 210.754 35.2192 207.396 32.4199 204.578C29.1591 201.295 27.2148 196.923 27.2148 192.887C27.2148 186.969 30.384 178.049 38.6225 173.05C35.908 170.371 33.8993 166.603 34.449 162.106L34.4591 162.028C35.5721 154.245 40.0374 148.177 47.37 144.487C52.6055 141.855 58.5129 140.919 61.9807 140.919C64.9225 140.919 69.432 141.632 73.2662 143.636C78.3491 146.285 81.145 150.602 81.145 155.788C81.1679 157.488 80.8108 159.171 80.0999 160.716C79.4043 162.174 78.3491 163.259 77.1615 164.331C77.1316 164.358 76.3369 165.094 76.3369 165.094C76.3384 165.094 75.4647 165.35 75.1208 165.461C74.4416 165.69 73.7921 165.999 73.1864 166.382C72.0358 167.037 71.0205 167.905 70.1946 168.939C69.4654 169.879 68.9846 170.986 68.7964 172.16C68.6297 173.357 68.8585 174.564 68.8585 175.764C68.8585 180.196 64.1659 181.224 64.1659 181.224L64.2303 182.316C65.7028 181.606 67.1214 180.79 68.4751 179.874C70.9037 178.176 69.1852 175.046 70.2735 172.165C70.7855 170.81 71.8528 169.181 74.2284 167.66C75.9219 166.598 77.8581 165.983 79.8548 165.875C81.1094 165.789 82.3693 165.818 83.6185 165.962C84.801 166.072 85.9516 166.407 87.0083 166.949C87.441 167.183 87.8482 167.461 88.223 167.78C88.301 167.848 89.1018 168.672 89.1018 168.716C92.081 166.864 95.2875 165.765 98.0596 165.765C101.585 165.765 104.873 167.373 107.357 170.168C110.594 167.295 115.059 165.04 119.928 165.04C123.766 165.04 127.145 167.054 128.703 170.595C129.602 172.64 129.884 174.902 129.955 177.134C131.115 172.755 131.845 168.323 132.69 163.883C133.735 158.141 134.393 154.553 134.804 153.169C135.9 149.473 139.863 147.173 145.146 147.173C148.376 147.173 150.191 148.513 151.148 149.635C152.126 150.782 153.177 152.861 152.631 156.225C152.377 157.802 151.298 162.466 150.249 166.861C151.756 166.298 153.35 165.999 154.959 165.979C160.669 165.979 165.538 170.653 167.361 177.165C175.171 166.167 185.242 165.854 186.352 165.854C189.259 165.883 192.098 166.74 194.536 168.323C196.999 169.975 198.786 172.457 199.571 175.316C200.182 174.607 200.793 173.963 201.387 173.383C205.754 169.123 211.491 166.261 215.668 166.261C217.344 166.272 219.001 166.62 220.541 167.281C222.393 158.637 224.294 149.934 224.317 149.829L224.701 148.079L226.306 147.282C226.706 147.085 230.31 145.352 233.876 145.352C237.347 145.352 239.223 146.854 240.187 148.113C242.501 151.141 241.724 155.486 240.784 158.932C240.122 161.367 238.708 167.292 237.228 173.759C236.567 176.645 235.891 179.643 235.267 182.479C236.774 179.067 238.926 175.978 241.605 173.383C245.972 169.123 251.713 166.261 255.887 166.261C257.563 166.272 259.22 166.619 260.759 167.281C262.612 158.637 264.512 149.934 264.536 149.829L264.919 148.079L266.528 147.282C266.925 147.085 270.528 145.352 274.098 145.352C277.569 145.352 279.445 146.854 280.406 148.113C282.723 151.141 281.943 155.486 281.006 158.932C280.1 162.259 277.789 172.094 275.828 180.932C276.66 179.488 277.578 178.095 278.577 176.761C286.344 166.159 296.177 165.854 297.273 165.854C300.18 165.882 303.019 166.739 305.457 168.323C307.713 169.83 309.406 172.041 310.272 174.611C310.672 174.173 311.073 173.763 311.463 173.383C315.83 169.123 321.567 166.261 325.744 166.261C327.42 166.272 329.077 166.62 330.617 167.281C332.469 158.637 334.37 149.934 334.393 149.829L334.773 148.079L336.382 147.282C336.782 147.085 340.386 145.352 343.952 145.352C347.423 145.352 349.299 146.854 350.263 148.113C352.577 151.141 351.8 155.486 350.86 158.932C350.199 161.367 348.784 167.288 347.304 173.759C345.821 180.227 344.274 187.237 343.351 191.843Z" fill="#0F0F0F"/>
<path d="M65.3718 191.517C65.3718 191.517 59.9451 196.315 52.5681 196.315C45.1911 196.315 44.6823 191.859 44.6823 190.06C44.6823 188.261 46.2934 179.864 56.299 179.864C59.6907 179.864 63.4216 180.293 64.5239 176.437C65.6262 172.581 65.8806 171.039 65.8806 171.039H59.0124C56.2142 171.039 50.957 170.268 50.957 164.699C50.957 159.13 55.1967 153.818 61.8105 153.818C68.4244 153.818 69.1028 159.644 66.6437 162.9C66.6437 162.9 77.4125 164.528 77.4125 155.788C77.4125 147.049 66.8981 144.65 61.9801 144.65C57.0621 144.65 40.3578 147.135 38.1532 162.557C37.3901 168.812 43.8344 173.181 46.9717 173.695C34.4223 176.523 30.9458 187.575 30.9458 192.888C30.9458 198.2 36.0334 207.025 48.6676 207.025C61.3018 207.025 68.0852 201.027 68.0852 195.544C68.0852 192.031 65.3718 191.517 65.3718 191.517Z" fill="#F8F8F8"/>
<path d="M123.787 191.517C124.974 185.434 126.034 179.693 126.246 176.866C126.458 174.038 125.356 168.769 119.929 168.769C114.502 168.769 109.288 172.496 106.871 176.394C104.963 171.768 101.373 169.497 98.0594 169.497C94.7457 169.497 89.9548 171.896 86.6055 175.623V172.282C86.6055 171.339 85.9272 169.583 81.9843 169.583C79.5736 169.609 77.2314 170.388 75.2856 171.81C75.2856 171.81 75.4552 174.209 74.8616 178.322C74.2681 182.435 69.3501 204.969 69.3501 204.969C69.3501 204.969 70.5372 206.682 75.7944 206.682C81.0516 206.682 81.7299 205.397 82.3235 201.627C82.917 197.857 85.1216 184.919 85.4608 183.549C85.8 182.178 88.5134 179.864 91.5659 179.864C94.6185 179.864 94.8728 181.835 93.8553 186.205C92.8378 190.574 91.6507 197 91.3115 200.77C91.1024 203.095 91.0222 204.507 90.9915 205.249C90.9807 205.461 91.0342 205.671 91.1448 205.852C91.2555 206.033 91.4182 206.176 91.6118 206.263C92.3595 206.59 93.8235 207.025 96.3143 207.025C100.3 207.025 102.329 206.603 102.857 202.141C103.14 199.742 105.175 188.518 105.938 185.519C106.701 182.52 108.525 179.564 112.213 179.564C115.902 179.564 113.485 185.562 112.679 188.904C111.874 192.245 111.62 195.929 111.62 199.228C111.62 202.527 111.662 207.025 118.954 207.025C126.246 207.025 126.882 203.383 126.755 199.871C124.72 199.528 122.6 197.6 123.787 191.517Z" fill="#F8F8F8"/>
<path d="M154.958 169.711C149.721 169.711 144.466 174.895 144.466 174.895C144.466 174.895 148.458 158.645 148.947 155.629C149.436 152.613 148.197 150.905 145.145 150.905C141.477 150.905 138.955 152.297 138.382 154.229C137.81 156.162 136.284 165.213 134.948 172.217C133.613 179.222 129.225 204.155 129.225 204.155C129.225 204.155 134.121 207.025 142.007 207.025C159.687 207.025 164.393 189.953 164.393 182.82C164.393 175.687 160.195 169.711 154.958 169.711ZM152.776 188.518C152.039 194.556 147.434 198.543 144.212 198.543C143.77 198.546 143.329 198.499 142.897 198.402C142.188 198.219 141.578 197.767 141.196 197.142C140.814 196.518 140.69 195.769 140.851 195.054L143.186 184.046C143.304 183.487 143.587 182.976 143.999 182.58C145.335 181.298 147.984 178.965 149.639 178.965C151.631 178.965 153.539 182.263 152.776 188.518Z" fill="#F8F8F8"/>
<path d="M196.441 179.864C196.441 171.039 189.149 169.583 186.35 169.583C183.552 169.583 176.345 171.211 170.664 178.965C168.038 182.548 165.279 186.847 165.279 194.087C165.279 200.723 169.201 207.025 179.143 207.025C187.283 207.025 193.388 201.756 193.388 201.756L192.879 195.629C192.879 195.629 187.156 199.014 182.196 199.014C179.314 199.014 177.65 196.699 176.943 193.861C182.063 193.327 196.441 190.851 196.441 179.864ZM186.181 184.277C184.2 186.505 180.046 187.6 176.737 187.975C176.76 187.841 176.784 187.707 176.811 187.575C177.744 182.992 181.56 176.48 184.612 176.48C187.665 176.48 188.428 181.749 186.181 184.277Z" fill="#F8F8F8"/>
<path d="M293.119 199.014C290.237 199.014 288.573 196.699 287.867 193.861C292.986 193.327 307.364 190.851 307.364 179.864C307.364 171.039 300.072 169.583 297.274 169.583C294.476 169.583 287.268 171.211 281.587 178.965C278.961 182.548 276.203 186.847 276.203 194.087C276.203 200.723 280.125 207.025 290.066 207.025C298.206 207.025 304.312 201.756 304.312 201.756L303.803 195.629C303.803 195.629 298.079 199.014 293.119 199.014ZM295.535 176.48C298.588 176.48 299.351 181.749 297.104 184.277C295.123 186.505 290.97 187.6 287.661 187.975C287.683 187.84 287.708 187.707 287.735 187.575C288.667 182.992 292.483 176.48 295.535 176.48Z" fill="#F8F8F8"/>
<path d="M347.259 157.952C348.659 152.811 348.595 149.084 343.953 149.084C341.154 149.084 338.038 150.626 338.038 150.626C338.038 150.626 335.272 163.28 333.14 173.347C331.412 171.769 328.788 169.99 325.743 169.99C320.274 169.99 306.495 178.129 306.495 194.066C306.495 196.765 306.41 207.025 317.01 207.025C323.708 207.025 328.202 200.834 328.202 200.834C328.202 200.834 328.923 207.025 335.325 207.025C341.727 207.025 344.652 203.062 344.652 198.821C341.6 199.978 337.911 199.978 339.692 191.11C341.472 182.242 345.86 163.092 347.259 157.952ZM328.881 193.487C328.563 194.837 325.637 197.921 321.631 197.921C317.624 197.921 316.798 190.467 320.104 184.812C323.114 179.666 327.439 175.748 331.357 181.815C329.978 188.373 329.123 192.456 328.881 193.487Z" fill="#F8F8F8"/>
<path d="M237.184 157.952C238.583 152.811 238.519 149.084 233.877 149.084C231.079 149.084 227.963 150.626 227.963 150.626C227.963 150.626 225.197 163.28 223.064 173.347C221.336 171.769 218.713 169.99 215.668 169.99C210.198 169.99 196.419 178.129 196.419 194.066C196.419 196.765 196.335 207.025 206.934 207.025C213.632 207.025 218.127 200.834 218.127 200.834C218.127 200.834 218.847 207.025 225.249 207.025C231.651 207.025 234.576 203.062 234.576 198.821C231.524 199.978 227.835 199.978 229.616 191.11C231.397 182.242 235.785 163.092 237.184 157.952ZM218.805 193.487C218.487 194.837 215.562 197.921 211.555 197.921C207.549 197.921 206.722 190.467 210.029 184.812C213.038 179.666 217.364 175.748 221.281 181.815C219.903 188.373 219.048 192.456 218.805 193.487Z" fill="#F8F8F8"/>
<path d="M277.403 157.952C278.803 152.811 278.739 149.084 274.097 149.084C271.298 149.084 268.182 150.626 268.182 150.626C268.182 150.626 265.416 163.28 263.284 173.347C261.556 171.769 258.932 169.99 255.887 169.99C250.418 169.99 236.639 178.129 236.639 194.066C236.639 196.765 236.554 207.025 247.154 207.025C253.852 207.025 258.346 200.834 258.346 200.834C258.346 200.834 259.067 207.025 265.469 207.025C271.871 207.025 274.796 203.062 274.796 198.821C271.744 199.978 268.055 199.978 269.836 191.11C271.616 182.242 276.004 163.092 277.403 157.952ZM259.025 193.487C258.707 194.837 255.781 197.921 251.775 197.921C247.768 197.921 246.942 190.467 250.248 184.812C253.258 179.666 257.583 175.748 261.501 181.815C260.122 188.373 259.267 192.456 259.025 193.487Z" fill="#F8F8F8"/>
</svg>
